<mxfile host="app.diagrams.net" modified="2020-09-29T06:18:55.480Z" agent="5.0 (Windows NT 10.0; Win64; x64) AppleWebKit/537.36 (KHTML, like Gecko) Chrome/85.0.4183.121 Safari/537.36" etag="qrJN1bY8QOjmtfy6tGSB" version="13.7.6" type="github">
  <diagram id="-qIr2_UXZxA3kkLqqSqM" name="Page-1">
    <mxGraphModel dx="2035" dy="1735" grid="1" gridSize="10" guides="1" tooltips="1" connect="1" arrows="1" fold="1" page="1" pageScale="1" pageWidth="850" pageHeight="1100" math="0" shadow="0">
      <root>
        <mxCell id="0" />
        <mxCell id="1" parent="0" />
        <mxCell id="Y9nZwd153pjmUSm361T4-191" value="" style="rounded=0;whiteSpace=wrap;html=1;shadow=0;fillColor=#e1d5e7;strokeColor=none;" vertex="1" parent="1">
          <mxGeometry x="-160" y="-140" width="840" height="140" as="geometry" />
        </mxCell>
        <mxCell id="Y9nZwd153pjmUSm361T4-116" value="" style="group;" vertex="1" connectable="0" parent="1">
          <mxGeometry x="220" y="200" width="440" height="320" as="geometry" />
        </mxCell>
        <mxCell id="Y9nZwd153pjmUSm361T4-1" value="&lt;br&gt;&lt;br&gt;&lt;br&gt;&lt;br&gt;" style="rounded=0;whiteSpace=wrap;html=1;" vertex="1" parent="Y9nZwd153pjmUSm361T4-116">
          <mxGeometry width="440" height="320" as="geometry" />
        </mxCell>
        <mxCell id="Y9nZwd153pjmUSm361T4-14" value="MCDF&lt;br&gt;" style="text;html=1;strokeColor=none;fillColor=none;align=center;verticalAlign=middle;whiteSpace=wrap;rounded=0;fontColor=#FF0000;" vertex="1" parent="Y9nZwd153pjmUSm361T4-116">
          <mxGeometry x="400" y="300.60606060606057" width="40" height="19.393939393939394" as="geometry" />
        </mxCell>
        <mxCell id="Y9nZwd153pjmUSm361T4-2" value="slave0" style="rounded=0;whiteSpace=wrap;html=1;" vertex="1" parent="Y9nZwd153pjmUSm361T4-116">
          <mxGeometry x="135" y="48.484848484848484" width="75" height="29.090909090909086" as="geometry" />
        </mxCell>
        <mxCell id="Y9nZwd153pjmUSm361T4-11" value="slave1" style="rounded=0;whiteSpace=wrap;html=1;" vertex="1" parent="Y9nZwd153pjmUSm361T4-116">
          <mxGeometry x="222.5" y="48.484848484848484" width="75" height="29.090909090909086" as="geometry" />
        </mxCell>
        <mxCell id="Y9nZwd153pjmUSm361T4-21" style="edgeStyle=orthogonalEdgeStyle;rounded=0;orthogonalLoop=1;jettySize=auto;html=1;exitX=0.5;exitY=1;exitDx=0;exitDy=0;entryX=0.5;entryY=0;entryDx=0;entryDy=0;" edge="1" parent="1" source="Y9nZwd153pjmUSm361T4-2" target="Y9nZwd153pjmUSm361T4-7">
          <mxGeometry relative="1" as="geometry" />
        </mxCell>
        <mxCell id="Y9nZwd153pjmUSm361T4-101" style="edgeStyle=elbowEdgeStyle;rounded=0;sketch=0;jumpStyle=none;orthogonalLoop=1;jettySize=auto;html=1;exitX=1;exitY=0.5;exitDx=0;exitDy=0;shadow=0;startArrow=none;startFill=0;endArrow=none;endFill=0;" edge="1" parent="1" source="Y9nZwd153pjmUSm361T4-6" target="Y9nZwd153pjmUSm361T4-1">
          <mxGeometry relative="1" as="geometry">
            <Array as="points">
              <mxPoint x="320" y="360" />
            </Array>
          </mxGeometry>
        </mxCell>
        <mxCell id="Y9nZwd153pjmUSm361T4-6" value="FIFO0" style="rounded=0;whiteSpace=wrap;html=1;" vertex="1" parent="1">
          <mxGeometry x="250" y="310" width="40" height="180" as="geometry" />
        </mxCell>
        <mxCell id="Y9nZwd153pjmUSm361T4-98" style="edgeStyle=orthogonalEdgeStyle;rounded=0;sketch=0;jumpStyle=none;orthogonalLoop=1;jettySize=auto;html=1;exitX=0.5;exitY=1;exitDx=0;exitDy=0;shadow=0;startArrow=none;startFill=0;endArrow=classic;endFill=1;" edge="1" parent="1" source="Y9nZwd153pjmUSm361T4-9" target="Y9nZwd153pjmUSm361T4-15">
          <mxGeometry relative="1" as="geometry" />
        </mxCell>
        <mxCell id="Y9nZwd153pjmUSm361T4-9" value="FIFO1" style="rounded=0;whiteSpace=wrap;html=1;" vertex="1" parent="1">
          <mxGeometry x="442.5" y="300" width="75" height="50" as="geometry" />
        </mxCell>
        <mxCell id="Y9nZwd153pjmUSm361T4-22" style="edgeStyle=orthogonalEdgeStyle;rounded=0;orthogonalLoop=1;jettySize=auto;html=1;exitX=0.5;exitY=1;exitDx=0;exitDy=0;entryX=0.5;entryY=0;entryDx=0;entryDy=0;" edge="1" parent="1" source="Y9nZwd153pjmUSm361T4-11" target="Y9nZwd153pjmUSm361T4-9">
          <mxGeometry relative="1" as="geometry" />
        </mxCell>
        <mxCell id="Y9nZwd153pjmUSm361T4-12" value="FIFO2" style="rounded=0;whiteSpace=wrap;html=1;" vertex="1" parent="1">
          <mxGeometry x="530" y="300" width="75" height="50" as="geometry" />
        </mxCell>
        <mxCell id="Y9nZwd153pjmUSm361T4-23" style="edgeStyle=orthogonalEdgeStyle;rounded=0;orthogonalLoop=1;jettySize=auto;html=1;exitX=0.5;exitY=1;exitDx=0;exitDy=0;entryX=0.5;entryY=0;entryDx=0;entryDy=0;" edge="1" parent="1" source="Y9nZwd153pjmUSm361T4-13" target="Y9nZwd153pjmUSm361T4-12">
          <mxGeometry relative="1" as="geometry" />
        </mxCell>
        <mxCell id="Y9nZwd153pjmUSm361T4-13" value="slave2" style="rounded=0;whiteSpace=wrap;html=1;" vertex="1" parent="1">
          <mxGeometry x="530" y="250" width="75" height="30" as="geometry" />
        </mxCell>
        <mxCell id="Y9nZwd153pjmUSm361T4-80" value="" style="edgeStyle=orthogonalEdgeStyle;rounded=0;jumpStyle=arc;orthogonalLoop=1;jettySize=auto;html=1;" edge="1" parent="1" source="Y9nZwd153pjmUSm361T4-15" target="Y9nZwd153pjmUSm361T4-79">
          <mxGeometry relative="1" as="geometry" />
        </mxCell>
        <mxCell id="Y9nZwd153pjmUSm361T4-15" value="Arbiter&lt;br&gt;" style="rounded=0;whiteSpace=wrap;html=1;" vertex="1" parent="1">
          <mxGeometry x="355" y="380" width="250" height="40" as="geometry" />
        </mxCell>
        <mxCell id="Y9nZwd153pjmUSm361T4-79" value="Formatter" style="whiteSpace=wrap;html=1;rounded=0;" vertex="1" parent="1">
          <mxGeometry x="355" y="450" width="250" height="40" as="geometry" />
        </mxCell>
        <mxCell id="Y9nZwd153pjmUSm361T4-7" value="FIFO0" style="rounded=0;whiteSpace=wrap;html=1;shadow=0;" vertex="1" parent="1">
          <mxGeometry x="355" y="300" width="75" height="50" as="geometry" />
        </mxCell>
        <mxCell id="Y9nZwd153pjmUSm361T4-99" value="" style="endArrow=none;html=1;shadow=0;entryX=0.5;entryY=1;entryDx=0;entryDy=0;edgeStyle=orthogonalEdgeStyle;exitX=0.5;exitY=0;exitDx=0;exitDy=0;" edge="1" parent="1" source="Y9nZwd153pjmUSm361T4-15" target="Y9nZwd153pjmUSm361T4-7">
          <mxGeometry width="50" height="50" relative="1" as="geometry">
            <mxPoint x="400" y="380" as="sourcePoint" />
            <mxPoint x="450" y="330" as="targetPoint" />
            <Array as="points">
              <mxPoint x="480" y="360" />
              <mxPoint x="393" y="360" />
            </Array>
          </mxGeometry>
        </mxCell>
        <mxCell id="Y9nZwd153pjmUSm361T4-100" value="" style="endArrow=none;html=1;shadow=0;entryX=0.5;entryY=1;entryDx=0;entryDy=0;edgeStyle=orthogonalEdgeStyle;exitX=0.5;exitY=0;exitDx=0;exitDy=0;" edge="1" parent="1" source="Y9nZwd153pjmUSm361T4-15" target="Y9nZwd153pjmUSm361T4-12">
          <mxGeometry width="50" height="50" relative="1" as="geometry">
            <mxPoint x="400" y="380" as="sourcePoint" />
            <mxPoint x="450" y="330" as="targetPoint" />
            <Array as="points">
              <mxPoint x="480" y="360" />
              <mxPoint x="568" y="360" />
            </Array>
          </mxGeometry>
        </mxCell>
        <mxCell id="Y9nZwd153pjmUSm361T4-102" value="" style="endArrow=classic;html=1;shadow=0;edgeStyle=orthogonalEdgeStyle;exitX=1;exitY=0.5;exitDx=0;exitDy=0;entryX=0.25;entryY=0;entryDx=0;entryDy=0;endFill=1;" edge="1" parent="1" source="Y9nZwd153pjmUSm361T4-6" target="Y9nZwd153pjmUSm361T4-2">
          <mxGeometry width="50" height="50" relative="1" as="geometry">
            <mxPoint x="460" y="400" as="sourcePoint" />
            <mxPoint x="510" y="350" as="targetPoint" />
            <Array as="points">
              <mxPoint x="323" y="400" />
              <mxPoint x="323" y="230" />
              <mxPoint x="374" y="230" />
            </Array>
          </mxGeometry>
        </mxCell>
        <mxCell id="Y9nZwd153pjmUSm361T4-103" value="" style="endArrow=classic;html=1;shadow=0;entryX=0.25;entryY=0;entryDx=0;entryDy=0;edgeStyle=orthogonalEdgeStyle;endFill=1;" edge="1" parent="1" target="Y9nZwd153pjmUSm361T4-11">
          <mxGeometry width="50" height="50" relative="1" as="geometry">
            <mxPoint x="350" y="230" as="sourcePoint" />
            <mxPoint x="510" y="350" as="targetPoint" />
            <Array as="points">
              <mxPoint x="350" y="230" />
              <mxPoint x="461" y="230" />
            </Array>
          </mxGeometry>
        </mxCell>
        <mxCell id="Y9nZwd153pjmUSm361T4-104" value="" style="endArrow=classic;html=1;shadow=0;entryX=0.25;entryY=0;entryDx=0;entryDy=0;edgeStyle=orthogonalEdgeStyle;endFill=1;" edge="1" parent="1" target="Y9nZwd153pjmUSm361T4-13">
          <mxGeometry width="50" height="50" relative="1" as="geometry">
            <mxPoint x="430" y="230" as="sourcePoint" />
            <mxPoint x="510" y="350" as="targetPoint" />
            <Array as="points">
              <mxPoint x="440" y="230" />
              <mxPoint x="549" y="230" />
            </Array>
          </mxGeometry>
        </mxCell>
        <mxCell id="Y9nZwd153pjmUSm361T4-105" value="" style="endArrow=classic;html=1;shadow=0;entryX=0;entryY=0.5;entryDx=0;entryDy=0;" edge="1" parent="1" target="Y9nZwd153pjmUSm361T4-15">
          <mxGeometry width="50" height="50" relative="1" as="geometry">
            <mxPoint x="290" y="400" as="sourcePoint" />
            <mxPoint x="510" y="350" as="targetPoint" />
          </mxGeometry>
        </mxCell>
        <mxCell id="Y9nZwd153pjmUSm361T4-106" value="" style="endArrow=classic;html=1;shadow=0;edgeStyle=orthogonalEdgeStyle;entryX=0;entryY=0.5;entryDx=0;entryDy=0;endFill=1;" edge="1" parent="1" target="Y9nZwd153pjmUSm361T4-79">
          <mxGeometry width="50" height="50" relative="1" as="geometry">
            <mxPoint x="290" y="400" as="sourcePoint" />
            <mxPoint x="510" y="350" as="targetPoint" />
          </mxGeometry>
        </mxCell>
        <mxCell id="Y9nZwd153pjmUSm361T4-120" value="" style="rounded=0;whiteSpace=wrap;html=1;shadow=0;fillColor=#dae8fc;strokeColor=none;" vertex="1" parent="1">
          <mxGeometry x="-20" width="700" height="160" as="geometry" />
        </mxCell>
        <mxCell id="Y9nZwd153pjmUSm361T4-121" value="" style="rounded=0;whiteSpace=wrap;html=1;shadow=0;fillColor=#dae8fc;strokeColor=none;" vertex="1" parent="1">
          <mxGeometry x="-20" y="140" width="170" height="530" as="geometry" />
        </mxCell>
        <mxCell id="Y9nZwd153pjmUSm361T4-122" value="" style="rounded=0;whiteSpace=wrap;html=1;shadow=0;fillColor=#dae8fc;strokeColor=none;" vertex="1" parent="1">
          <mxGeometry x="150" y="550" width="530" height="120" as="geometry" />
        </mxCell>
        <mxCell id="Y9nZwd153pjmUSm361T4-129" value="" style="group;strokeColor=#666666;fontColor=#333333;" vertex="1" connectable="0" parent="1">
          <mxGeometry x="357.5" y="40" width="70" height="100" as="geometry" />
        </mxCell>
        <mxCell id="Y9nZwd153pjmUSm361T4-123" value="" style="rounded=0;whiteSpace=wrap;html=1;shadow=0;strokeColor=#82b366;fillColor=#d5e8d4;" vertex="1" parent="Y9nZwd153pjmUSm361T4-129">
          <mxGeometry width="70" height="100" as="geometry" />
        </mxCell>
        <mxCell id="Y9nZwd153pjmUSm361T4-124" value="monitor" style="rounded=0;whiteSpace=wrap;html=1;shadow=0;strokeColor=#d79b00;fillColor=#ffe6cc;" vertex="1" parent="Y9nZwd153pjmUSm361T4-129">
          <mxGeometry x="10" y="30" width="50" height="20" as="geometry" />
        </mxCell>
        <mxCell id="Y9nZwd153pjmUSm361T4-125" value="driver" style="rounded=0;whiteSpace=wrap;html=1;shadow=0;strokeColor=#d79b00;fillColor=#ffe6cc;" vertex="1" parent="Y9nZwd153pjmUSm361T4-129">
          <mxGeometry x="10" y="60" width="50" height="20" as="geometry" />
        </mxCell>
        <mxCell id="Y9nZwd153pjmUSm361T4-126" value="chnl_agent0" style="text;html=1;strokeColor=none;fillColor=none;align=center;verticalAlign=middle;whiteSpace=wrap;rounded=0;shadow=0;" vertex="1" parent="Y9nZwd153pjmUSm361T4-129">
          <mxGeometry x="15" width="40" height="20" as="geometry" />
        </mxCell>
        <mxCell id="Y9nZwd153pjmUSm361T4-130" value="" style="group;fillColor=#d5e8d4;strokeColor=#82b366;" vertex="1" connectable="0" parent="1">
          <mxGeometry x="445" y="40" width="70" height="100" as="geometry" />
        </mxCell>
        <mxCell id="Y9nZwd153pjmUSm361T4-131" value="" style="rounded=0;whiteSpace=wrap;html=1;shadow=0;strokeColor=#82b366;fillColor=#d5e8d4;" vertex="1" parent="Y9nZwd153pjmUSm361T4-130">
          <mxGeometry width="70" height="100" as="geometry" />
        </mxCell>
        <mxCell id="Y9nZwd153pjmUSm361T4-132" value="monitor" style="rounded=0;whiteSpace=wrap;html=1;shadow=0;strokeColor=#d79b00;fillColor=#ffe6cc;" vertex="1" parent="Y9nZwd153pjmUSm361T4-130">
          <mxGeometry x="10" y="30" width="50" height="20" as="geometry" />
        </mxCell>
        <mxCell id="Y9nZwd153pjmUSm361T4-133" value="driver" style="rounded=0;whiteSpace=wrap;html=1;shadow=0;strokeColor=#d79b00;fillColor=#ffe6cc;" vertex="1" parent="Y9nZwd153pjmUSm361T4-130">
          <mxGeometry x="10" y="60" width="50" height="20" as="geometry" />
        </mxCell>
        <mxCell id="Y9nZwd153pjmUSm361T4-134" value="chnl_agent0" style="text;html=1;strokeColor=none;fillColor=none;align=center;verticalAlign=middle;whiteSpace=wrap;rounded=0;shadow=0;" vertex="1" parent="Y9nZwd153pjmUSm361T4-130">
          <mxGeometry x="15" width="40" height="20" as="geometry" />
        </mxCell>
        <mxCell id="Y9nZwd153pjmUSm361T4-135" value="" style="group" vertex="1" connectable="0" parent="1">
          <mxGeometry x="532.5" y="40" width="70" height="100" as="geometry" />
        </mxCell>
        <mxCell id="Y9nZwd153pjmUSm361T4-136" value="" style="rounded=0;whiteSpace=wrap;html=1;shadow=0;strokeColor=#82b366;fillColor=#d5e8d4;" vertex="1" parent="Y9nZwd153pjmUSm361T4-135">
          <mxGeometry width="70" height="100" as="geometry" />
        </mxCell>
        <mxCell id="Y9nZwd153pjmUSm361T4-137" value="monitor" style="rounded=0;whiteSpace=wrap;html=1;shadow=0;strokeColor=#d79b00;fillColor=#ffe6cc;" vertex="1" parent="Y9nZwd153pjmUSm361T4-135">
          <mxGeometry x="10" y="30" width="50" height="20" as="geometry" />
        </mxCell>
        <mxCell id="Y9nZwd153pjmUSm361T4-138" value="driver" style="rounded=0;whiteSpace=wrap;html=1;shadow=0;strokeColor=#d79b00;fillColor=#ffe6cc;" vertex="1" parent="Y9nZwd153pjmUSm361T4-135">
          <mxGeometry x="10" y="60" width="50" height="20" as="geometry" />
        </mxCell>
        <mxCell id="Y9nZwd153pjmUSm361T4-139" value="chnl_agent0" style="text;html=1;strokeColor=none;fillColor=none;align=center;verticalAlign=middle;whiteSpace=wrap;rounded=0;shadow=0;" vertex="1" parent="Y9nZwd153pjmUSm361T4-135">
          <mxGeometry x="15" width="40" height="20" as="geometry" />
        </mxCell>
        <mxCell id="Y9nZwd153pjmUSm361T4-141" value="" style="endArrow=classic;html=1;shadow=0;exitX=0.5;exitY=1;exitDx=0;exitDy=0;entryX=0.5;entryY=0;entryDx=0;entryDy=0;startArrow=classic;startFill=1;" edge="1" parent="1" source="Y9nZwd153pjmUSm361T4-125" target="Y9nZwd153pjmUSm361T4-2">
          <mxGeometry relative="1" as="geometry">
            <mxPoint x="370" y="180" as="sourcePoint" />
            <mxPoint x="470" y="180" as="targetPoint" />
          </mxGeometry>
        </mxCell>
        <mxCell id="Y9nZwd153pjmUSm361T4-142" value="CH0_IF" style="edgeLabel;resizable=0;html=1;align=center;verticalAlign=middle;" connectable="0" vertex="1" parent="Y9nZwd153pjmUSm361T4-141">
          <mxGeometry relative="1" as="geometry">
            <mxPoint y="-4.289999999999999" as="offset" />
          </mxGeometry>
        </mxCell>
        <mxCell id="Y9nZwd153pjmUSm361T4-152" value="" style="endArrow=classic;html=1;shadow=0;entryX=0.5;entryY=0;entryDx=0;entryDy=0;startArrow=classic;startFill=1;exitX=0.5;exitY=1;exitDx=0;exitDy=0;" edge="1" parent="1" source="Y9nZwd153pjmUSm361T4-133" target="Y9nZwd153pjmUSm361T4-11">
          <mxGeometry relative="1" as="geometry">
            <mxPoint x="480" y="140" as="sourcePoint" />
            <mxPoint x="479.71" y="231.5151515151514" as="targetPoint" />
          </mxGeometry>
        </mxCell>
        <mxCell id="Y9nZwd153pjmUSm361T4-153" value="CH1_IF" style="edgeLabel;resizable=0;html=1;align=center;verticalAlign=middle;" connectable="0" vertex="1" parent="Y9nZwd153pjmUSm361T4-152">
          <mxGeometry relative="1" as="geometry">
            <mxPoint y="-4.289999999999999" as="offset" />
          </mxGeometry>
        </mxCell>
        <mxCell id="Y9nZwd153pjmUSm361T4-157" value="" style="endArrow=classic;html=1;shadow=0;exitX=0.5;exitY=1;exitDx=0;exitDy=0;entryX=0.5;entryY=0;entryDx=0;entryDy=0;startArrow=classic;startFill=1;" edge="1" parent="1" source="Y9nZwd153pjmUSm361T4-138" target="Y9nZwd153pjmUSm361T4-13">
          <mxGeometry relative="1" as="geometry">
            <mxPoint x="370" y="230" as="sourcePoint" />
            <mxPoint x="470" y="230" as="targetPoint" />
          </mxGeometry>
        </mxCell>
        <mxCell id="Y9nZwd153pjmUSm361T4-158" value="CH2_IF" style="edgeLabel;resizable=0;html=1;align=center;verticalAlign=middle;" connectable="0" vertex="1" parent="Y9nZwd153pjmUSm361T4-157">
          <mxGeometry relative="1" as="geometry">
            <mxPoint y="-4.76" as="offset" />
          </mxGeometry>
        </mxCell>
        <mxCell id="Y9nZwd153pjmUSm361T4-161" value="" style="group;fillColor=#ffe6cc;strokeColor=#d79b00;" vertex="1" connectable="0" parent="1">
          <mxGeometry x="445" y="560" width="70" height="100" as="geometry" />
        </mxCell>
        <mxCell id="Y9nZwd153pjmUSm361T4-162" value="" style="rounded=0;whiteSpace=wrap;html=1;shadow=0;strokeColor=#82b366;fillColor=#d5e8d4;" vertex="1" parent="Y9nZwd153pjmUSm361T4-161">
          <mxGeometry width="70" height="100" as="geometry" />
        </mxCell>
        <mxCell id="Y9nZwd153pjmUSm361T4-163" value="monitor" style="rounded=0;whiteSpace=wrap;html=1;shadow=0;strokeColor=#d79b00;fillColor=#ffe6cc;" vertex="1" parent="Y9nZwd153pjmUSm361T4-161">
          <mxGeometry x="10" y="50" width="50" height="20" as="geometry" />
        </mxCell>
        <mxCell id="Y9nZwd153pjmUSm361T4-164" value="driver" style="rounded=0;whiteSpace=wrap;html=1;shadow=0;strokeColor=#d79b00;fillColor=#ffe6cc;" vertex="1" parent="Y9nZwd153pjmUSm361T4-161">
          <mxGeometry x="10" y="20" width="50" height="20" as="geometry" />
        </mxCell>
        <mxCell id="Y9nZwd153pjmUSm361T4-165" value="fmt_agent" style="text;html=1;strokeColor=none;fillColor=none;align=center;verticalAlign=middle;whiteSpace=wrap;rounded=0;shadow=0;" vertex="1" parent="Y9nZwd153pjmUSm361T4-161">
          <mxGeometry x="10" y="80" width="40" height="20" as="geometry" />
        </mxCell>
        <mxCell id="Y9nZwd153pjmUSm361T4-166" value="" style="endArrow=classic;html=1;shadow=0;exitX=0.5;exitY=1;exitDx=0;exitDy=0;entryX=0.5;entryY=0;entryDx=0;entryDy=0;" edge="1" parent="1" source="Y9nZwd153pjmUSm361T4-79" target="Y9nZwd153pjmUSm361T4-164">
          <mxGeometry relative="1" as="geometry">
            <mxPoint x="430" y="570" as="sourcePoint" />
            <mxPoint x="530" y="570" as="targetPoint" />
          </mxGeometry>
        </mxCell>
        <mxCell id="Y9nZwd153pjmUSm361T4-167" value="FMT_IF" style="edgeLabel;resizable=0;html=1;align=center;verticalAlign=middle;" connectable="0" vertex="1" parent="Y9nZwd153pjmUSm361T4-166">
          <mxGeometry relative="1" as="geometry">
            <mxPoint y="4.76" as="offset" />
          </mxGeometry>
        </mxCell>
        <mxCell id="Y9nZwd153pjmUSm361T4-173" value="" style="group;strokeColor=#d79b00;fillColor=#ffe6cc;" vertex="1" connectable="0" parent="1">
          <mxGeometry x="50" y="360" width="70" height="100" as="geometry" />
        </mxCell>
        <mxCell id="Y9nZwd153pjmUSm361T4-174" value="" style="rounded=0;whiteSpace=wrap;html=1;shadow=0;strokeColor=#82b366;fillColor=#d5e8d4;" vertex="1" parent="Y9nZwd153pjmUSm361T4-173">
          <mxGeometry width="70" height="100" as="geometry" />
        </mxCell>
        <mxCell id="Y9nZwd153pjmUSm361T4-175" value="monitor" style="rounded=0;whiteSpace=wrap;html=1;shadow=0;strokeColor=#d79b00;fillColor=#ffe6cc;" vertex="1" parent="Y9nZwd153pjmUSm361T4-173">
          <mxGeometry x="10" y="70" width="50" height="20" as="geometry" />
        </mxCell>
        <mxCell id="Y9nZwd153pjmUSm361T4-176" value="driver" style="rounded=0;whiteSpace=wrap;html=1;shadow=0;strokeColor=#d79b00;fillColor=#ffe6cc;" vertex="1" parent="Y9nZwd153pjmUSm361T4-173">
          <mxGeometry x="10" y="30" width="50" height="20" as="geometry" />
        </mxCell>
        <mxCell id="Y9nZwd153pjmUSm361T4-177" value="reg_agent" style="text;html=1;strokeColor=none;fillColor=none;align=center;verticalAlign=middle;whiteSpace=wrap;rounded=0;shadow=0;" vertex="1" parent="Y9nZwd153pjmUSm361T4-173">
          <mxGeometry x="15" width="40" height="20" as="geometry" />
        </mxCell>
        <mxCell id="Y9nZwd153pjmUSm361T4-178" value="" style="endArrow=classic;html=1;shadow=0;exitX=1;exitY=0.5;exitDx=0;exitDy=0;entryX=0;entryY=0.5;entryDx=0;entryDy=0;" edge="1" parent="1" source="Y9nZwd153pjmUSm361T4-176" target="Y9nZwd153pjmUSm361T4-6">
          <mxGeometry relative="1" as="geometry">
            <mxPoint x="190" y="380" as="sourcePoint" />
            <mxPoint x="290" y="380" as="targetPoint" />
          </mxGeometry>
        </mxCell>
        <mxCell id="Y9nZwd153pjmUSm361T4-179" value="REG_IF" style="edgeLabel;resizable=0;html=1;align=center;verticalAlign=middle;" connectable="0" vertex="1" parent="Y9nZwd153pjmUSm361T4-178">
          <mxGeometry relative="1" as="geometry" />
        </mxCell>
        <mxCell id="Y9nZwd153pjmUSm361T4-180" value="mcdf_cheker" style="rounded=0;whiteSpace=wrap;html=1;shadow=0;strokeColor=#82b366;fillColor=#d5e8d4;" vertex="1" parent="1">
          <mxGeometry x="37.5" y="580" width="95" height="80" as="geometry" />
        </mxCell>
        <mxCell id="Y9nZwd153pjmUSm361T4-181" value="" style="endArrow=none;html=1;shadow=0;entryX=0;entryY=0.5;entryDx=0;entryDy=0;edgeStyle=orthogonalEdgeStyle;exitX=0;exitY=0.5;exitDx=0;exitDy=0;endFill=0;startArrow=classic;startFill=1;" edge="1" parent="1" source="Y9nZwd153pjmUSm361T4-180" target="Y9nZwd153pjmUSm361T4-124">
          <mxGeometry width="50" height="50" relative="1" as="geometry">
            <mxPoint x="280" y="150" as="sourcePoint" />
            <mxPoint x="330" y="100" as="targetPoint" />
            <Array as="points">
              <mxPoint x="10" y="620" />
              <mxPoint x="10" y="80" />
            </Array>
          </mxGeometry>
        </mxCell>
        <mxCell id="Y9nZwd153pjmUSm361T4-182" value="" style="endArrow=none;html=1;shadow=0;entryX=0;entryY=0.5;entryDx=0;entryDy=0;edgeStyle=orthogonalEdgeStyle;" edge="1" parent="1" target="Y9nZwd153pjmUSm361T4-132">
          <mxGeometry width="50" height="50" relative="1" as="geometry">
            <mxPoint x="330" y="80" as="sourcePoint" />
            <mxPoint x="450" y="100" as="targetPoint" />
            <Array as="points">
              <mxPoint x="330" y="20" />
              <mxPoint x="440" y="20" />
              <mxPoint x="440" y="80" />
            </Array>
          </mxGeometry>
        </mxCell>
        <mxCell id="Y9nZwd153pjmUSm361T4-183" value="" style="endArrow=none;html=1;shadow=0;entryX=0;entryY=0.5;entryDx=0;entryDy=0;edgeStyle=orthogonalEdgeStyle;" edge="1" parent="1" target="Y9nZwd153pjmUSm361T4-137">
          <mxGeometry width="50" height="50" relative="1" as="geometry">
            <mxPoint x="430" y="20" as="sourcePoint" />
            <mxPoint x="620" y="100" as="targetPoint" />
            <Array as="points">
              <mxPoint x="530" y="20" />
              <mxPoint x="530" y="80" />
            </Array>
          </mxGeometry>
        </mxCell>
        <mxCell id="Y9nZwd153pjmUSm361T4-184" value="" style="endArrow=none;html=1;shadow=0;entryX=0;entryY=0.5;entryDx=0;entryDy=0;startArrow=classic;startFill=1;" edge="1" parent="1" target="Y9nZwd153pjmUSm361T4-175">
          <mxGeometry width="50" height="50" relative="1" as="geometry">
            <mxPoint x="10" y="440" as="sourcePoint" />
            <mxPoint x="350" y="400" as="targetPoint" />
          </mxGeometry>
        </mxCell>
        <mxCell id="Y9nZwd153pjmUSm361T4-185" value="" style="endArrow=none;html=1;shadow=0;entryX=0;entryY=0.5;entryDx=0;entryDy=0;exitX=1;exitY=0.5;exitDx=0;exitDy=0;startArrow=classic;startFill=1;" edge="1" parent="1" source="Y9nZwd153pjmUSm361T4-180" target="Y9nZwd153pjmUSm361T4-163">
          <mxGeometry width="50" height="50" relative="1" as="geometry">
            <mxPoint x="122.5" y="610" as="sourcePoint" />
            <mxPoint x="172.5" y="560" as="targetPoint" />
          </mxGeometry>
        </mxCell>
        <mxCell id="Y9nZwd153pjmUSm361T4-187" value="mcdf_env" style="text;html=1;strokeColor=none;fillColor=none;align=center;verticalAlign=middle;whiteSpace=wrap;rounded=0;shadow=0;fontColor=#FF0000;" vertex="1" parent="1">
          <mxGeometry x="630" y="650" width="40" height="20" as="geometry" />
        </mxCell>
        <mxCell id="Y9nZwd153pjmUSm361T4-188" value="" style="rounded=0;whiteSpace=wrap;html=1;shadow=0;fillColor=#e1d5e7;strokeColor=none;" vertex="1" parent="1">
          <mxGeometry x="-160" width="140" height="670" as="geometry" />
        </mxCell>
        <mxCell id="Y9nZwd153pjmUSm361T4-189" value="channel0&lt;br&gt;generator" style="rounded=0;whiteSpace=wrap;html=1;shadow=0;strokeColor=#d79b00;fillColor=#ffe6cc;" vertex="1" parent="1">
          <mxGeometry x="353" y="-100" width="72.5" height="60" as="geometry" />
        </mxCell>
        <mxCell id="Y9nZwd153pjmUSm361T4-192" value="" style="endArrow=classic;html=1;shadow=0;exitX=1;exitY=0.5;exitDx=0;exitDy=0;entryX=1;entryY=0.5;entryDx=0;entryDy=0;edgeStyle=orthogonalEdgeStyle;jumpStyle=arc;" edge="1" parent="1" source="Y9nZwd153pjmUSm361T4-189" target="Y9nZwd153pjmUSm361T4-125">
          <mxGeometry width="50" height="50" relative="1" as="geometry">
            <mxPoint x="350" y="140" as="sourcePoint" />
            <mxPoint x="400" y="90" as="targetPoint" />
            <Array as="points">
              <mxPoint x="430" y="110" />
            </Array>
          </mxGeometry>
        </mxCell>
        <mxCell id="Y9nZwd153pjmUSm361T4-193" value="channel1&lt;br&gt;generator" style="rounded=0;whiteSpace=wrap;html=1;shadow=0;strokeColor=#d79b00;fillColor=#ffe6cc;" vertex="1" parent="1">
          <mxGeometry x="442.5" y="-100" width="72.5" height="60" as="geometry" />
        </mxCell>
        <mxCell id="Y9nZwd153pjmUSm361T4-194" value="channel2&lt;br&gt;generator" style="rounded=0;whiteSpace=wrap;html=1;shadow=0;strokeColor=#d79b00;fillColor=#ffe6cc;" vertex="1" parent="1">
          <mxGeometry x="532.5" y="-100" width="72.5" height="60" as="geometry" />
        </mxCell>
        <mxCell id="Y9nZwd153pjmUSm361T4-196" value="" style="endArrow=classic;html=1;shadow=0;exitX=1;exitY=0.5;exitDx=0;exitDy=0;entryX=1;entryY=0.5;entryDx=0;entryDy=0;edgeStyle=orthogonalEdgeStyle;jumpStyle=arc;" edge="1" parent="1" source="Y9nZwd153pjmUSm361T4-193" target="Y9nZwd153pjmUSm361T4-133">
          <mxGeometry width="50" height="50" relative="1" as="geometry">
            <mxPoint x="350" y="140" as="sourcePoint" />
            <mxPoint x="400" y="90" as="targetPoint" />
            <Array as="points">
              <mxPoint x="520" y="-70" />
              <mxPoint x="520" y="110" />
            </Array>
          </mxGeometry>
        </mxCell>
        <mxCell id="Y9nZwd153pjmUSm361T4-198" value="" style="endArrow=classic;html=1;shadow=0;exitX=1;exitY=0.5;exitDx=0;exitDy=0;entryX=1;entryY=0.5;entryDx=0;entryDy=0;edgeStyle=orthogonalEdgeStyle;" edge="1" parent="1" source="Y9nZwd153pjmUSm361T4-194" target="Y9nZwd153pjmUSm361T4-138">
          <mxGeometry width="50" height="50" relative="1" as="geometry">
            <mxPoint x="350" y="140" as="sourcePoint" />
            <mxPoint x="400" y="90" as="targetPoint" />
          </mxGeometry>
        </mxCell>
        <mxCell id="Y9nZwd153pjmUSm361T4-199" value="reg&lt;br&gt;generator" style="rounded=0;whiteSpace=wrap;html=1;shadow=0;strokeColor=#d79b00;fillColor=#ffe6cc;" vertex="1" parent="1">
          <mxGeometry x="-135" y="370" width="90" height="60" as="geometry" />
        </mxCell>
        <mxCell id="Y9nZwd153pjmUSm361T4-200" value="" style="endArrow=classic;html=1;shadow=0;exitX=1;exitY=0.5;exitDx=0;exitDy=0;entryX=0;entryY=0.5;entryDx=0;entryDy=0;" edge="1" parent="1" source="Y9nZwd153pjmUSm361T4-199" target="Y9nZwd153pjmUSm361T4-176">
          <mxGeometry width="50" height="50" relative="1" as="geometry">
            <mxPoint x="-120" y="390" as="sourcePoint" />
            <mxPoint x="-70" y="340" as="targetPoint" />
          </mxGeometry>
        </mxCell>
        <mxCell id="Y9nZwd153pjmUSm361T4-201" value="" style="rounded=0;whiteSpace=wrap;html=1;shadow=0;fillColor=#e1d5e7;strokeColor=none;" vertex="1" parent="1">
          <mxGeometry x="-160" y="670" width="840" height="80" as="geometry" />
        </mxCell>
        <mxCell id="Y9nZwd153pjmUSm361T4-202" value="fmt&lt;br&gt;generator" style="rounded=0;whiteSpace=wrap;html=1;shadow=0;strokeColor=#d79b00;fillColor=#ffe6cc;" vertex="1" parent="1">
          <mxGeometry x="420" y="690" width="120" height="40" as="geometry" />
        </mxCell>
        <mxCell id="Y9nZwd153pjmUSm361T4-203" value="" style="endArrow=none;html=1;shadow=0;exitX=1;exitY=0.5;exitDx=0;exitDy=0;entryX=1;entryY=0.5;entryDx=0;entryDy=0;edgeStyle=orthogonalEdgeStyle;" edge="1" parent="1" source="Y9nZwd153pjmUSm361T4-202" target="Y9nZwd153pjmUSm361T4-164">
          <mxGeometry width="50" height="50" relative="1" as="geometry">
            <mxPoint x="480" y="720" as="sourcePoint" />
            <mxPoint x="530" y="670" as="targetPoint" />
          </mxGeometry>
        </mxCell>
        <mxCell id="Y9nZwd153pjmUSm361T4-204" value="mcdf_base_test" style="text;html=1;strokeColor=none;fillColor=none;align=center;verticalAlign=middle;whiteSpace=wrap;rounded=0;shadow=0;fontColor=#FF0000;" vertex="1" parent="1">
          <mxGeometry x="610" y="730" width="40" height="20" as="geometry" />
        </mxCell>
      </root>
    </mxGraphModel>
  </diagram>
</mxfile>
